<svg width="30" height="30" version="1.1" viewBox="0 0 7.9375 7.9375" xmlns="http://www.w3.org/2000/svg">
  <g transform="translate(-68.118 -99.138)">
    <text transform="scale(.26458)" fill="#000000" font-family="sans-serif" font-size="40px" style="line-height:1.25;shape-inside:url(#rect3818);white-space:pre" xml:space="preserve"/>
    <g transform="translate(.41321 2.4014)" fill="#4d4d4d" stroke-width=".26458" aria-label="SCB">
      <path d="m69.125 102.27c-0.41717 0.0191-0.89607-0.21782-0.98531-0.6562-0.14352-0.26488 0.40537-0.23603 0.48373-0.10593 0.0087 0.23588 0.28955 0.35632 0.49922 0.35499 0.24724 0.0112 0.5584-0.13059 0.54421-0.41919 0.0091-0.36063-0.35764-0.49342-0.64545-0.56826-0.35987-0.101-0.74972-0.32065-0.81603-0.72379-0.09651-0.40968 0.1486-0.89138 0.58177-0.97008 0.45519-0.13255 1.0598 0.0066 1.2459 0.48734 0.13968 0.21265-0.01095 0.34921-0.22269 0.28969-0.20033 0.04899-0.21328-0.07099-0.27699-0.23365-0.21853-0.28056-0.80348-0.24922-0.87279 0.14428-0.06848 0.35321 0.29056 0.51452 0.57208 0.57694 0.34871 0.0906 0.72028 0.26906 0.8438 0.63581 0.17028 0.42544-0.03728 0.98677-0.49822 1.1167-0.14474 0.0527-0.29984 0.0711-0.4532 0.0714z"/>
      <path d="m71.691 99.138c0.41776-0.02818 0.85855 0.25475 0.94271 0.67733 0.17698 0.28943-0.54775 0.28723-0.48445-0.0011-0.18066-0.40834-0.91741-0.32547-0.96202 0.13441-0.01578 0.50701-0.01006 1.0148-0.0028 1.5217 0.05343 0.38448 0.58452 0.49819 0.8585 0.28435 0.09155-0.15486 0.13737-0.41402 0.37381-0.35191 0.0997 0.0179 0.31356-0.0635 0.23614 0.11327-0.06351 0.42538-0.45698 0.75488-0.88539 0.75532-0.44462 0.0435-0.95928-0.22045-1.0274-0.69521-0.06318-0.42047-3e-3 -0.84795-0.02865-1.2711-0.01183-0.33508 0.01277-0.72743 0.30621-0.94582 0.18717-0.15301 0.43272-0.22955 0.67336-0.22131z"/>
      <path d="m74.214 99.18c0.40615-0.02729 0.88767 0.20078 0.94686 0.64212 0.07191 0.33322-0.123 0.74808-0.48952 0.78753-0.09947 0.0921 0.34125 0.0657 0.36972 0.23144 0.38377 0.42266 0.15412 1.2096-0.41143 1.3359-0.40905 0.0928-0.8323 0.0371-1.2483 0.051-0.1419 0.0453-0.09797-0.0951-0.10286-0.18678v-2.8612l0.93556 3e-5zm-0.47837 2.6458c0.29991-0.0229 0.67065 0.0803 0.90572-0.16154 0.24094-0.275 0.06128-0.8103-0.3325-0.7996-0.16539 0.0324-0.53716-0.10612-0.57323 0.0695v0.89161zm0-2.2479v0.889c0.28999-0.0233 0.66417 0.0841 0.87659-0.17431 0.19511-0.25854 0.02147-0.71639-0.32578-0.70716-0.18316-0.0176-0.36731-0.0024-0.5508-0.0075z"/>
    </g>
  </g>
</svg>
